<svg id="Capa_1" data-name="Capa 1" xmlns="http://www.w3.org/2000/svg" viewBox="0 0 350 350"><defs><style>.cls-1{fill:#fff;}</style></defs><title>envio</title><path class="cls-1" d="M194.2,170.81H160.31c-5.83,0-5.83,8.81,0,8.81H194.2C200,179.62,200,170.81,194.2,170.81Z"/><path class="cls-1" d="M194.2,192.26H160.31c-5.83,0-5.83,8.81,0,8.81H194.2C200,201.07,200,192.26,194.2,192.26Z"/><path class="cls-1" d="M33.39,184.43V72.24a.88.88,0,0,1,.87-.88H89.42v62a8.87,8.87,0,0,0,14.38,7l17.67-14a.06.06,0,0,1,.07,0l17.67,14a8.87,8.87,0,0,0,14.38-7v-62h59.12a.88.88,0,0,1,.87.88V87.53c0,5.83,8.82,5.84,8.82,0V72.24a9.7,9.7,0,0,0-9.69-9.69H34.26a9.7,9.7,0,0,0-9.69,9.69V184.43C24.57,190.26,33.39,190.27,33.39,184.43Zm111.4-51.06c-.12.13.44.38-17.78-14a8.82,8.82,0,0,0-11,0l-17.69,14c-.15,0,0-20.71-.08-62h46.55Z"/><path class="cls-1" d="M80,242a14.49,14.49,0,1,0,14.49,14.49A14.51,14.51,0,0,0,80,242Zm0,20.17c-7.52,0-7.51-11.36,0-11.36S87.51,262.17,80,262.17Z"/><path class="cls-1" d="M234.86,197.65h41.45a8.15,8.15,0,0,0,7-12.37l-15-24.82a8.2,8.2,0,0,0-7-3.92H234.86a8.16,8.16,0,0,0-8.15,8.14V189.5A8.16,8.16,0,0,0,234.86,197.65Zm.66-32.3H260.9l14.23,23.49H235.52Z"/><path class="cls-1" d="M316,184.28l-15.36-4.19-.21-.05a3.34,3.34,0,0,1-2.1-1.47l-22-34.28a12.12,12.12,0,0,0-10.25-5.6H222.4V105.16c0-5.82-8.82-5.84-8.82,0V214.82H33.39V202.06c0-5.83-8.82-5.84-8.82,0v46.55A12.31,12.31,0,0,0,36.86,260.9H49.35a31,31,0,0,0,61.3,0H227.44a31,31,0,0,0,61.29,0h24.52a12.19,12.19,0,0,0,12.18-12.17v-52.6A12.09,12.09,0,0,0,316,184.28ZM266.1,147.5a3.36,3.36,0,0,1,2.83,1.54l22,34.29a12.12,12.12,0,0,0,7.5,5.29l15.36,4.18.21.06a3.33,3.33,0,0,1,2.63,3.27v36.71H306.3a12.41,12.41,0,0,0-12.4,12.4v6.84h-5.17a31,31,0,0,0-61.29,0h-5V147.5ZM33.39,248.61v-25H213.58v28.44H110.65a31,31,0,0,0-61.3,0H36.86A3.48,3.48,0,0,1,33.39,248.61Zm46.61,30a22.14,22.14,0,1,1,22.14-22.14A22.17,22.17,0,0,1,80,278.63Zm178.08,0a22.14,22.14,0,1,1,22.15-22.14A22.16,22.16,0,0,1,258.08,278.63Zm55.17-26.55H302.72v-6.84a3.58,3.58,0,0,1,3.58-3.58h10.31v7.07A3.35,3.35,0,0,1,313.25,252.08Z"/><path class="cls-1" d="M258.08,242a14.49,14.49,0,1,0,14.5,14.49A14.51,14.51,0,0,0,258.08,242Zm0,20.17c-7.51,0-7.5-11.36,0-11.36S265.59,262.17,258.08,262.17Z"/></svg>