<?xml version="1.0" encoding="utf-8"?>
<!-- Generator: Adobe Illustrator 24.0.2, SVG Export Plug-In . SVG Version: 6.00 Build 0)  -->
<svg version="1.1" id="Capa_1" xmlns="http://www.w3.org/2000/svg" xmlns:xlink="http://www.w3.org/1999/xlink" x="0px" y="0px"
	 viewBox="0 0 227.5 227.5" style="enable-background:new 0 0 227.5 227.5;" xml:space="preserve">
<style type="text/css">
	.st0{fill:#FFFFFF;}
</style>
<title>instagram</title>
<path class="st0" d="M154.8,209H72.7c-29.9-0.1-54.1-24.3-54.2-54.2V72.7c0.1-29.9,24.3-54.1,54.2-54.2h82.1
	c29.9,0.1,54.1,24.3,54.2,54.2v82.1C208.9,184.7,184.7,208.9,154.8,209z M72.7,34.8c-20.9,0-37.9,17-37.9,37.9v82.1
	c0,20.9,17,37.9,37.9,37.9h82.1c20.9,0,37.8-17,37.9-37.9V72.7c0-20.9-17-37.8-37.9-37.9H72.7z"/>
<path class="st0" d="M113.8,162.5c-26.9,0-48.8-21.8-48.8-48.8C65,86.8,86.8,65,113.7,65c26.9,0,48.8,21.8,48.8,48.8c0,0,0,0,0,0
	C162.5,140.7,140.7,162.5,113.8,162.5z M113.8,81.3c-17.9,0-32.5,14.5-32.5,32.4c0,17.9,14.5,32.5,32.4,32.5
	c17.9,0,32.5-14.5,32.5-32.4c0,0,0,0,0,0C146.2,95.9,131.7,81.3,113.8,81.3z"/>
<path class="st0" d="M176.3,62.2c0,6.5-5.2,11.7-11.7,11.7c-6.5,0-11.7-5.2-11.7-11.7c0-6.5,5.2-11.7,11.7-11.7c0,0,0,0,0,0
	C171.1,50.5,176.3,55.7,176.3,62.2z"/>
</svg>
