<svg id="Capa_1" data-name="Capa 1" xmlns="http://www.w3.org/2000/svg" viewBox="0 0 350 350"><defs><style>.cls-1{fill:#fff;}</style></defs><title>pago</title><path class="cls-1" d="M75.59,293.85H250.94a20,20,0,0,0,19.93-19.93V253l13.51-7.81a20,20,0,0,0,7.31-27.24l-20.82-36.07V170.31a19.89,19.89,0,0,0-18.08-19.74L204,66.08a20,20,0,0,0-27.23-7.27L87.07,110.62a19.92,19.92,0,0,0-7.32,27.21L87,150.38H75.59a20,20,0,0,0-19.93,19.93V273.92A20,20,0,0,0,75.59,293.85ZM270.87,197.8l13.92,24.1a12.06,12.06,0,0,1-4.4,16.38l-9.52,5.5ZM180.77,65.72a12,12,0,0,1,16.34,4.36l46.37,80.3H195.32a19.91,19.91,0,0,0,1.43-38.71,19.93,19.93,0,1,0-24.61,14.24,19.8,19.8,0,0,0,15.41,24.47H151.42L122.09,99.6Zm-.33,60.7A19.78,19.78,0,0,0,193.11,119a11.63,11.63,0,0,1,8.65,5.86,12,12,0,0,1-20.72,12A11.84,11.84,0,0,1,180.44,126.42Zm-6.07-8.14a11.95,11.95,0,1,1,9.08-1.19A11.92,11.92,0,0,1,174.37,118.28Zm-59.18-14.7,27,46.8h-18.4l-22.4-38.83ZM86.65,133.84A12,12,0,0,1,91,117.52l3.44-2,20.12,34.85H96.22Zm-23,36.47a12,12,0,0,1,12-12H250.94a12,12,0,0,1,12,12v67.75H63.63Zm0,75.72H262.9V262H63.63Zm0,23.91H262.9v4a12,12,0,0,1-12,12H75.59a12,12,0,0,1-12-12Z"/><path class="cls-1" d="M120.09,167.69a19.87,19.87,0,0,0-14,5.73,19.92,19.92,0,1,0,0,28.38,19.93,19.93,0,1,0,14-34.11ZM92.2,199.57a12,12,0,1,1,12-12A12,12,0,0,1,92.2,199.57Zm27.89,0a11.8,11.8,0,0,1-9.37-4.73,19.34,19.34,0,0,0,0-14.46,11.79,11.79,0,0,1,9.37-4.72,12,12,0,1,1,0,23.91Z"/></svg>